#N canvas 586 212 749 442 10;
#X obj 372 256 sendOSC;
#X msg 399 110 disconnect;
#X msg 372 77 connect 192.168.1.72 7001;
#X obj 83 71 dumpOSC 7000;
#X obj 83 108 OSCroute /onset /note /rms /rmspoly;
#X obj 83 234 print ONSET;
#X obj 134 211 print NOTE;
#X obj 186 187 print RMS;
#X obj 238 164 print RMSPOLY;
#X msg 414 203 send /note \$1;
#X msg 414 169 22;
#X floatatom 450 169 5 0 0 0 - - -;
#X connect 1 0 0 0;
#X connect 2 0 0 0;
#X connect 3 0 4 0;
#X connect 4 0 5 0;
#X connect 4 1 6 0;
#X connect 4 2 7 0;
#X connect 4 3 8 0;
#X connect 9 0 0 0;
#X connect 10 0 9 0;
#X connect 11 0 9 0;
